<svg width="12" height="12" viewBox="0 0 12 12" fill="none" xmlns="http://www.w3.org/2000/svg">
<path d="M11.069 8.76868L6.35883 3.5101C6.1874 3.27438 5.83651 3.27438 5.66642 3.5101L0.930597 8.76868C0.918972 8.78469 0.912009 8.80361 0.910478 8.82334C0.908946 8.84307 0.912908 8.86283 0.921922 8.88045C0.930937 8.89806 0.944653 8.91283 0.96155 8.92313C0.978447 8.93342 0.997864 8.93884 1.01765 8.93877H2.02211C2.09042 8.93877 2.1547 8.90529 2.19488 8.85038L5.99976 4.66665L9.8047 8.85038C9.84488 8.90529 9.90917 8.93877 9.97747 8.93877H10.9819C11.069 8.93877 11.1199 8.83967 11.069 8.76868Z" fill="black" fill-opacity="0.85"/>
</svg>
